<svg width="152" height="20" viewBox="0 0 152 20" fill="none" xmlns="http://www.w3.org/2000/svg">
<g clip-path="url(#clip0_4_1339)">
<path fill-rule="evenodd" clip-rule="evenodd" d="M0.640808 18.6578H6.88182L11.7762 0.225258H5.53514L0.640808 18.6578Z" fill="white" fill-opacity="0.501961"/>
<path fill-rule="evenodd" clip-rule="evenodd" d="M32.7034 18.6578H38.9444L43.8388 0.225258H37.5978L32.7034 18.6578Z" fill="white" fill-opacity="0.501961"/>
<path fill-rule="evenodd" clip-rule="evenodd" d="M64.7661 18.6578H71.0071L75.9014 0.225258H69.6604L64.7661 18.6578Z" fill="white" fill-opacity="0.501961"/>
<path fill-rule="evenodd" clip-rule="evenodd" d="M26.8831 6.53944H33.1306C33.9588 2.39688 31.3046 0.261452 25.181 0.261452C18.0987 0.261452 13.2859 3.76238 11.6718 9.83966C10.2078 15.3477 13.1033 18.7039 19.7682 18.7039C26.5048 18.7039 30.4862 16.5882 32.1883 11.8501H25.9244C25.0538 13.9361 23.4104 15.0253 21.1964 15.0253C18.1737 15.0253 16.9901 13.0905 17.9194 9.59288C18.8976 5.94388 21.1801 3.93348 24.2158 3.93348C26.1331 3.93348 27.0363 4.80213 26.8928 6.53944" fill="white" fill-opacity="0.501961"/>
<path fill-rule="evenodd" clip-rule="evenodd" d="M58.9555 6.53944H65.203C66.0312 2.39688 63.377 0.261452 57.2534 0.261452C50.1711 0.261452 45.3583 3.76238 43.7442 9.83966C42.2802 15.3477 45.1757 18.7039 51.8406 18.7039C58.5772 18.7039 62.5585 16.5882 64.2574 11.8501H57.987C57.1164 13.9361 55.473 15.0253 53.259 15.0253C50.2363 15.0253 49.0527 13.0905 49.982 9.59288C50.9602 5.94388 53.2427 3.93348 56.2784 3.93348C58.1957 3.93348 59.0989 4.80213 58.9555 6.53944" fill="white" fill-opacity="0.501961"/>
<path fill-rule="evenodd" clip-rule="evenodd" d="M85.276 15.7458L86.7042 10.3694H90.7931C93.9397 10.3694 95.3353 10.9321 94.7581 13.1103C94.2266 15.1042 92.6876 15.7426 89.8442 15.7426H85.2792L85.276 15.7458ZM88.6443 3.07141H92.5245C95.4429 3.07141 96.7961 3.42677 96.3037 5.27265C95.8114 7.11854 94.2462 7.5759 91.23 7.5759H87.4476L88.6443 3.07141ZM80.5642 18.6874H89.9258C92.5898 18.6874 94.5723 18.4801 96.4733 17.1508C97.7474 16.2826 98.6724 14.984 99.0819 13.4887C99.7568 10.9551 98.6058 9.26385 95.7461 8.85585C98.446 8.34256 100.145 6.91125 100.725 4.73304C101.172 3.04509 100.807 1.84082 99.6036 1.02153C98.6253 0.363458 96.995 0.251587 94.7842 0.251587H85.4553L80.5642 18.6874Z" fill="white" fill-opacity="0.501961"/>
<path fill-rule="evenodd" clip-rule="evenodd" d="M110.817 12.7483L110.758 12.9819C110.505 14.0859 109.883 15.0681 108.996 15.7638C108.11 16.4594 107.013 16.826 105.89 16.802C104.188 16.802 103.477 16.144 103.803 14.9068C104.253 13.2188 105.721 12.7549 108.434 12.7549H110.817V12.7483ZM109.379 18.6907H113.136C113.264 17.7218 113.459 16.7631 113.719 15.8215L115.085 10.6754C115.992 7.2699 114.322 5.5293 110.083 5.5293C106.001 5.5293 103.337 6.9639 102.519 9.37243H106.118C106.591 8.16817 107.628 7.60551 109.353 7.60551C111.28 7.60551 111.962 8.47416 111.469 10.3431L111.407 10.5734H109.428C103.846 10.5734 100.833 11.5967 99.972 14.8509C99.3036 17.3581 100.872 19 104.195 19C106.235 19.0352 108.214 18.294 109.738 16.9238L109.379 18.6907Z" fill="white" fill-opacity="0.501961"/>
<path fill-rule="evenodd" clip-rule="evenodd" d="M116.357 18.6907H120.14L121.887 12.11C122.185 10.975 122.838 9.96752 123.749 9.23807C124.661 8.50862 125.782 8.09636 126.945 8.06288C129.152 8.06288 129.922 9.37902 129.227 11.9817L127.447 18.6907H131.151L133.244 10.7939C134.128 7.46732 132.455 5.54576 128.777 5.54576C127.66 5.51534 126.55 5.72826 125.522 6.17002C124.494 6.61177 123.572 7.27199 122.82 8.10566L123.273 5.82873H119.54C119.155 7.8512 118.898 9.10592 118.77 9.59289L116.357 18.6808" fill="white" fill-opacity="0.501961"/>
<path fill-rule="evenodd" clip-rule="evenodd" d="M134.48 18.6874H138.162L140.004 11.7514L144.96 18.6874H150.008L144.425 11.3401L152 5.83859H147.256L140.199 11.011L143.056 0.254868H139.375L134.48 18.6874Z" fill="white" fill-opacity="0.501961"/>
</g>
<defs>
<clipPath id="clip0_4_1339">
<rect width="152" height="20" fill="white"/>
</clipPath>
</defs>
</svg>
