<svg width="164" height="19" viewBox="0 0 164 19" fill="none" xmlns="http://www.w3.org/2000/svg">
<g clip-path="url(#clip0_4_1278)">
<path fill-rule="evenodd" clip-rule="evenodd" d="M20.8843 13.5653L19.8851 18.5185H15.604C15.9494 16.8813 16.2904 15.0929 16.6336 13.425C16.7161 13.0503 16.803 12.6733 16.8877 12.27C16.9025 11.9815 16.9322 11.694 16.9768 11.4087C17.1418 9.42299 15.6931 9.01972 14.3225 9.65531C13.5232 9.99503 13.1518 10.532 12.7565 11.2925C12.4144 11.9364 12.1935 12.6386 12.1049 13.3637L11.0514 18.4879H6.81808L9.27033 6.28448C10.5736 6.25599 11.8768 6.199 13.18 6.17051C13.0063 6.94637 12.8368 7.7047 12.6891 8.4433C14.2617 6.54091 16.3165 5.56779 18.6601 6.22311C21.0255 6.91788 21.5142 9.27615 21.1688 11.584C21.1167 12.2471 21.0217 12.906 20.8843 13.5565" fill="white" fill-opacity="0.501961"/>
<path fill-rule="evenodd" clip-rule="evenodd" d="M98.003 0.726318L96.3218 8.51343C96.0517 7.95542 95.6635 7.46405 95.1846 7.07398C94.7057 6.68392 94.1478 6.40468 93.5503 6.25598C93.3354 6.21132 93.1176 6.18275 92.8986 6.1705C91.7222 6.06773 90.5399 6.28573 89.4755 6.80171C86.4781 8.35563 85.1314 12.7609 86.3347 15.871C86.8495 17.1663 87.5619 18.1175 88.9303 18.6084C90.1293 19.0467 90.7874 18.9788 91.9256 18.6939C92.2593 18.6082 92.5849 18.4931 92.8986 18.3498C93.7284 17.9443 94.4082 17.3109 95.1532 16.5964C94.9838 17.2298 94.81 17.8939 94.6406 18.5536H98.4678L102.16 0.726318H98.003ZM93.8391 15.3077C93.5489 15.4933 93.2305 15.6296 92.8965 15.711C92.5416 15.7789 92.1763 15.7676 91.8262 15.6779C91.476 15.5882 91.1497 15.4222 90.8699 15.1915C90.6021 14.9504 90.4223 14.6255 90.3595 14.2688C90.1271 13.436 90.2705 12.3423 90.5572 11.5643C90.7817 10.7806 91.2763 10.1037 91.9516 9.65531C92.2382 9.47552 92.5583 9.35693 92.8921 9.30683C93.384 9.20583 93.895 9.26731 94.3496 9.48216C94.6573 9.6219 94.9225 9.84207 95.1176 10.1199C95.3127 10.3977 95.4308 10.7231 95.4595 11.0624L95.5138 11.755C95.5138 13.1379 95.0316 14.5187 93.8348 15.2967" fill="white" fill-opacity="0.501961"/>
<path fill-rule="evenodd" clip-rule="evenodd" d="M63.5369 6.42913L62.6528 9.0789C61.602 8.77275 60.5211 8.58314 59.4295 8.51344C59.1144 8.48787 58.7973 8.50556 58.4868 8.56604C57.631 8.76767 57.2596 9.51943 57.9156 10.1178C58.7431 10.9287 60.1702 11.1281 61.1737 11.7922C61.4606 11.9847 61.7283 12.2049 61.973 12.4497C62.7984 13.7187 62.6832 15.0798 61.834 16.3641C60.4873 18.4112 57.9243 18.6128 55.611 18.4418C54.4015 18.3347 53.201 18.1414 52.0185 17.8632L52.7874 14.9001C54.3295 15.3384 55.3265 15.6803 56.7839 15.5335C57.4356 15.4787 58.35 15.5335 58.35 14.6107C58.2088 13.9773 57.5833 13.5697 56.923 13.2585C55.9542 12.8201 54.9268 12.5374 54.1579 11.7615C53.6692 11.104 53.5889 10.5824 53.5889 9.77805C53.5593 9.08255 53.7705 8.39834 54.1862 7.84278C56.2388 4.85111 60.522 5.71683 63.5434 6.4357" fill="white" fill-opacity="0.501961"/>
<path fill-rule="evenodd" clip-rule="evenodd" d="M39.4292 6.13762L43.7082 6.08502C43.3911 7.61921 43.0805 9.13368 42.7416 10.7183C42.5374 11.755 42.1378 13.0502 42.4245 14.0825C42.5961 14.6611 42.7677 14.8628 43.3368 15.0337C43.6466 15.1327 43.9748 15.1585 44.296 15.1091C44.6173 15.0597 44.923 14.9364 45.1895 14.7488C46.6448 13.6836 47.0466 11.8996 47.4159 10.1988L48.2934 6.08502H52.4876L49.9007 18.5185C48.6735 18.5492 47.4485 18.4616 46.1908 18.49C46.3342 17.7975 46.5036 16.7937 46.6448 16.0989C46.2212 16.5088 45.8172 16.9339 45.3611 17.3109C44.7347 17.8143 44.0043 18.1693 43.2238 18.3498C42.3376 18.5492 41.1104 18.5492 40.2829 18.2051C39.3424 17.8282 38.656 16.9646 38.2867 16.0134C37.8002 14.7159 38.0022 13.8809 38.202 12.5571C38.5126 10.4246 38.9731 8.26796 39.4292 6.13543" fill="white" fill-opacity="0.501961"/>
<path fill-rule="evenodd" clip-rule="evenodd" d="M34.6095 0.726318L32.8957 8.51343C32.6257 7.95575 32.2378 7.4646 31.7593 7.07457C31.2809 6.68453 30.7235 6.40511 30.1264 6.25598C29.9115 6.21132 29.6937 6.18275 29.4748 6.1705C28.2975 6.06712 27.1144 6.28514 26.0494 6.80171C23.0542 8.35563 21.7053 12.7609 22.9108 15.871C23.4234 17.1663 24.1663 18.1175 25.5173 18.6084C26.7119 19.0467 27.37 18.9788 28.5125 18.6939C28.8455 18.6079 29.1703 18.4928 29.4834 18.3498C30.311 17.9443 31.0039 17.3109 31.7337 16.5964C31.5643 17.2298 31.3905 17.8939 31.2211 18.5536H35.0439L38.7842 0.732893L34.6095 0.726318ZM30.4109 15.3077C30.125 15.4985 29.807 15.6351 29.4726 15.711C29.1177 15.7791 28.7523 15.7679 28.4022 15.6781C28.0521 15.5884 27.7257 15.4223 27.4461 15.1915C27.1777 14.9502 26.9965 14.6256 26.9313 14.2688C26.701 13.436 26.8444 12.3423 27.1311 11.5643C27.3681 10.7863 27.8607 10.113 28.5277 9.65531C28.8153 9.47586 29.136 9.3573 29.4704 9.30683C29.9616 9.206 30.4719 9.26748 30.9257 9.48216C31.2336 9.62552 31.5 9.84599 31.6996 10.1226C31.8992 10.3992 32.0253 10.7227 32.066 11.0624L32.0986 11.755C32.0986 13.1379 31.6077 14.5187 30.4087 15.2967" fill="white" fill-opacity="0.501961"/>
<path fill-rule="evenodd" clip-rule="evenodd" d="M3.67946 0.726318H8.01704L4.39189 18.4922H0L3.67946 0.726318Z" fill="white" fill-opacity="0.501961"/>
<path fill-rule="evenodd" clip-rule="evenodd" d="M84.3342 13.5653L83.3373 18.5185H79.0301C79.3689 16.8813 79.7403 15.0929 80.0857 13.425C80.1682 13.0503 80.2595 12.6733 80.342 12.3007C80.3458 12.0026 80.3647 11.7049 80.3985 11.4087C80.5983 9.42299 79.1126 9.01972 77.7442 9.65531C76.9753 10.0257 76.6061 10.532 76.2064 11.2925C75.8068 11.95 75.6916 12.5878 75.5548 13.3637L74.4688 18.4879H70.2963L72.7246 6.28228C74.0083 6.25379 75.318 6.22092 76.6343 6.16831C76.4627 6.94418 76.2911 7.7025 76.1174 8.44111C77.7182 6.53871 79.7729 5.5656 82.11 6.22092C84.4776 6.91568 84.9641 9.27395 84.6231 11.6103C84.5645 12.2678 84.4515 12.899 84.3342 13.5631" fill="white" fill-opacity="0.501961"/>
<path fill-rule="evenodd" clip-rule="evenodd" d="M66.8753 0.726318H71.2694L67.6181 18.4922H63.2284L66.8753 0.726318Z" fill="white" fill-opacity="0.501961"/>
<path fill-rule="evenodd" clip-rule="evenodd" d="M147.639 13.6113L146.644 18.5142H142.4C142.715 16.8616 143.106 15.1105 143.421 13.4733C143.492 13.0788 143.599 12.7215 143.67 12.3248C143.676 12.0379 143.7 11.7517 143.742 11.4679C143.918 9.50629 142.465 9.10959 141.12 9.7145C140.341 10.0696 139.989 10.6087 139.561 11.3605C139.233 11.9975 139.018 12.6872 138.924 13.3987L137.862 18.4703H133.714L136.127 6.38969L139.989 6.2823C139.843 7.03186 139.669 7.78142 139.528 8.53537C141.049 6.63735 143.106 5.67301 145.406 6.31956C147.78 6.99679 148.247 9.35506 147.923 11.641C147.854 12.3204 147.747 12.9319 147.639 13.6135" fill="white" fill-opacity="0.501961"/>
<path fill-rule="evenodd" clip-rule="evenodd" d="M152.424 0.881958H156.642L154.481 11.3254L158.697 6.31957H163.41L158.449 11.8251L161.568 18.4397H157.1L154.339 12.0377L153.028 18.4397H148.922L152.424 0.881958Z" fill="white" fill-opacity="0.501961"/>
<path fill-rule="evenodd" clip-rule="evenodd" d="M132.936 8.8181C131.946 6.42476 129.213 5.99738 126.594 6.31956C125.54 6.43721 124.497 6.63949 123.475 6.92447L123.012 9.74738C123.614 9.41486 124.258 9.16429 124.926 9.0022C125.473 8.8832 126.03 8.8099 126.589 8.78303C127.026 8.78787 127.462 8.82597 127.893 8.897C128.959 9.14685 129.346 9.93367 129.346 10.9682C128.386 10.9682 127.43 10.9331 126.581 11.0032C125.093 11.0777 123.644 11.2881 122.15 12.0421C121.124 12.7566 120.736 13.2585 120.525 14.1505C120.314 15.0425 120.201 15.9389 120.666 16.7608C121.372 18.1942 123.003 18.9065 124.561 18.764C125.264 18.6803 125.947 18.4741 126.581 18.1547C127.287 17.7612 127.932 17.2658 128.496 16.6841L128.279 18.5142H131.755L131.9 17.1531C132.219 15.4743 132.606 13.756 132.964 12.0421C133.103 10.7928 133.388 10.0038 132.927 8.82029L132.936 8.8181ZM127.79 15.3274C127.496 15.5928 127.161 15.8102 126.8 15.9718C126.726 16.0091 126.657 16.0091 126.583 16.0419C126.016 16.2611 125.28 16.2918 124.776 15.9367C123.887 15.2573 124.207 14.1111 124.993 13.5434C125.465 13.2227 126.02 13.0483 126.589 13.0415C127.154 13.0042 127.758 13.0415 128.29 13.0415H128.894C128.646 13.7911 128.36 14.7182 127.795 15.3274" fill="white" fill-opacity="0.501961"/>
<path fill-rule="evenodd" clip-rule="evenodd" d="M120.108 4.8511C119.537 2.59584 116.567 2.31311 114.654 2.31311H108.459L105.236 18.4703H111.717C111.961 18.4396 112.21 18.4396 112.458 18.4002C115.401 18.181 118.479 17.6901 119.12 14.3609C119.58 12.0004 118.162 10.4991 116.005 10.1441C116.829 9.92568 117.634 9.6383 118.412 9.28491C119.615 8.46521 120.253 7.31238 120.253 5.99736V5.92065C120.258 5.55897 120.21 5.1986 120.11 4.8511H120.108ZM112.923 15.4304C112.772 15.4771 112.616 15.5022 112.458 15.505C111.574 15.6102 110.62 15.6102 109.91 15.654L110.757 11.6081C111.289 11.573 111.891 11.4985 112.458 11.4985C112.837 11.4675 113.219 11.4926 113.592 11.573C115.931 12.1056 115.366 15.0074 112.923 15.4304ZM113.913 8.78082C113.436 8.88883 112.947 8.93813 112.458 8.92766C112.071 8.92766 111.648 8.89698 111.252 8.89698L112.106 5.10315H112.458C113.488 5.03301 114.941 4.92123 115.542 5.56779C116.995 7.10198 115.223 8.46521 113.913 8.78082Z" fill="white" fill-opacity="0.501961"/>
</g>
<defs>
<clipPath id="clip0_4_1278">
<rect width="164" height="19" fill="white"/>
</clipPath>
</defs>
</svg>
